<?xml version="1.0" encoding="UTF-8" standalone="no"?>
<!-- Created with Inkscape (http://www.inkscape.org/) -->

<svg
   width="10mm"
   height="10mm"
   viewBox="0 0 10 10"
   version="1.1"
   id="svg1"
   xml:space="preserve"
   inkscape:version="1.3 (0e150ed, 2023-07-21)"
   sodipodi:docname="apply-icon.svg"
   xmlns:inkscape="http://www.inkscape.org/namespaces/inkscape"
   xmlns:sodipodi="http://sodipodi.sourceforge.net/DTD/sodipodi-0.dtd"
   xmlns="http://www.w3.org/2000/svg"
   xmlns:svg="http://www.w3.org/2000/svg"><sodipodi:namedview
     id="namedview1"
     pagecolor="#cecece"
     bordercolor="#000000"
     borderopacity="0.25"
     inkscape:showpageshadow="2"
     inkscape:pageopacity="0.0"
     inkscape:pagecheckerboard="0"
     inkscape:deskcolor="#d1d1d1"
     inkscape:document-units="mm"
     showgrid="false"
     inkscape:zoom="8.6577329"
     inkscape:cx="10.04882"
     inkscape:cy="11.723623"
     inkscape:window-width="1920"
     inkscape:window-height="1057"
     inkscape:window-x="0"
     inkscape:window-y="1080"
     inkscape:window-maximized="1"
     inkscape:current-layer="layer1" /><defs
     id="defs1" /><g
     inkscape:label="Layer 1"
     inkscape:groupmode="layer"
     id="layer1"><path
       style="fill:#ffffff;stroke-width:0.0941399"
       d="m 0.44518658,9.5781431 -0.061137,-0.06114 V 5.0064195 0.4958365 l 0.061137,-0.06114 0.061138,-0.0611399 H 5.0169076 9.5274907 l 0.06114,0.0611399 0.06114,0.06114 v 4.510583 4.5105836 l -0.06114,0.06114 -0.06114,0.06114 H 5.0169076 0.50632408 Z M 9.2512397,5.0064225 V 0.7720905 H 5.0169076 0.78257458 v 4.234332 4.234333 H 5.0169076 9.2512397 Z m -6.2951041,1.139181 c -0.9197753,-0.919776 -0.9779847,-0.983244 -0.9779847,-1.06634 0,-0.163755 0.162796,-0.266538 0.2928485,-0.184892 0.037573,0.02359 0.4456492,0.425528 0.9068352,0.893201 l 0.83852,0.850314 1.876822,-1.874316 c 2.059939,-2.057187 1.938433,-1.952752 2.092593,-1.798593 0.06353,0.06353 0.07319,0.08859 0.05999,0.155675 -0.01264,0.06425 -0.400993,0.46522 -1.97719,2.041444 -1.84556,1.845591 -1.96657,1.961492 -2.047954,1.961492 -0.08065,0 -0.152611,-0.06612 -1.06448,-0.977985 z"
       id="path1" /></g></svg>
