<?xml version="1.0" encoding="UTF-8" standalone="no"?>
<!-- Created with Inkscape (http://www.inkscape.org/) -->

<svg
   width="28mm"
   height="3.0999999mm"
   viewBox="0 0 28 3.0999997"
   version="1.1"
   id="svg1"
   inkscape:version="1.3 (0e150ed, 2023-07-21)"
   xml:space="preserve"
   sodipodi:docname="batukeitor-logo.svg"
   xmlns:inkscape="http://www.inkscape.org/namespaces/inkscape"
   xmlns:sodipodi="http://sodipodi.sourceforge.net/DTD/sodipodi-0.dtd"
   xmlns="http://www.w3.org/2000/svg"
   xmlns:svg="http://www.w3.org/2000/svg"><sodipodi:namedview
     id="namedview1"
     pagecolor="#222222"
     bordercolor="#b0ffa8"
     borderopacity="1"
     inkscape:showpageshadow="0"
     inkscape:pageopacity="0"
     inkscape:pagecheckerboard="false"
     inkscape:deskcolor="#222222"
     inkscape:document-units="mm"
     inkscape:zoom="21.467599"
     inkscape:cx="42.948445"
     inkscape:cy="-0.44252736"
     inkscape:current-layer="layer1"
     showgrid="false" /><defs
     id="defs1" /><g
     inkscape:label="Layer 1"
     inkscape:groupmode="layer"
     id="layer1"><path
       style="fill:#338000;stroke-width:0;stroke-dasharray:none"
       d="M 0.03624086,1.8366486 V 0.58909693 H 0.28348698 0.53073312 L 0.54433847,0.32824633 0.55794382,0.06739578 1.6580562,0.0552392 2.7581683,0.04308262 v 0.15958472 c 0,0.1521398 0.00741,0.15958642 0.1587791,0.15958642 h 0.1587791 v 0.24951035 c 0,0.21926456 0.010998,0.24950857 0.090731,0.24950857 0.070568,0 0.090731,-0.030244 0.090731,-0.13609664 0,-0.10585178 0.020163,-0.13609586 0.090731,-0.13609586 0.066536,0 0.090731,-0.0302441 0.090731,-0.11341191 0,-0.0993736 0.019658,-0.11341451 0.1587791,-0.11341451 0.1512182,0 0.158779,-0.007557 0.158779,-0.15877885 v -0.1587798 h 0.9526745 0.9526745 v 0.1587798 c 0,0.15060382 0.00802,0.15877885 0.1556239,0.15877885 0.1268489,0 0.1583044,0.0188731 0.1701204,0.10207174 0.011644,0.0819907 0.047967,0.10484262 0.1846171,0.11615212 L 6.3420397,0.5945545 V 0.34230658 0.09005775 H 7.6122725 8.8825051 V 0.31688412 0.54371135 H 9.0639674 9.2454295 V 0.29420194 0.04469158 h 0.657799 0.6578005 v 0.24951036 0.24950941 h 0.249509 0.249509 V 0.29229299 0.04087457 l 0.351583,0.01325359 0.351582,0.01325442 0.01371,0.23816748 0.01371,0.23816836 h 0.17909 0.179091 V 0.2942081 0.04469774 h 0.6578 0.657798 V 0.2942081 0.54371842 h 0.249511 0.249509 V 0.2942081 0.04469774 h 0.362924 0.362924 V 0.2942081 0.54371842 h 0.17909 0.179092 l 0.01372,-0.23816836 0.01371,-0.23816748 1.258888,-0.01205362 1.258893,-0.01205363 v 0.25022819 0.25022726 h 0.204144 0.204145 V 0.29422042 0.04471005 h 0.655535 0.655534 l 0.0136,0.26085232 0.01361,0.26085053 0.192803,0.0139574 0.192803,0.0139565 V 0.34220894 0.09009029 h 1.270232 1.270235 v 0.38560703 c 0,0.35536123 0.0071,0.3856044 0.09073,0.3856044 0.07345,0 0.09073,-0.0302431 0.09073,-0.15877885 0,-0.12853481 0.01728,-0.15877888 0.09073,-0.15877888 0.06049,0 0.09074,-0.0302434 0.09074,-0.0907315 0,-0.073448 0.03025,-0.0907297 0.158781,-0.0907297 0.151216,0 0.158778,-0.007557 0.158778,-0.15877887 V 0.04472413 h 0.952675 0.952675 v 0.1587798 c 0,0.15121787 0.0075,0.15877887 0.158778,0.15877887 0.13912,0 0.158779,0.0140426 0.158779,0.11341452 0,0.10207174 0.01815,0.11341191 0.181461,0.11341191 h 0.181463 V 0.31691667 0.04472413 h 1.111453 1.111453 v 0.1587798 c 0,0.15121787 0.0075,0.15877887 0.158779,0.15877887 h 0.158779 V 1.473736 2.5851895 h -0.249518 -0.24951 V 2.8346998 3.0842102 H 27.051376 26.529674 V 2.8346998 c 0,-0.2192662 -0.01099,-0.2495103 -0.09073,-0.2495103 -0.07973,0 -0.09073,0.030244 -0.09073,0.2495103 v 0.2495104 h -0.657799 -0.6578 V 2.6759209 c 0,-0.3780452 -0.0067,-0.4082885 -0.09073,-0.4082885 -0.07345,0 -0.09073,0.030243 -0.09073,0.158778 0,0.1285359 -0.01728,0.1587791 -0.09074,0.1587791 -0.06049,0 -0.09073,0.030244 -0.09073,0.090731 0,0.073449 -0.03025,0.090729 -0.15878,0.090729 -0.151217,0 -0.158779,0.00756 -0.158779,0.1587807 v 0.1587797 h -0.952669 -0.952675 v -0.158779 c 0,-0.1512188 -0.0076,-0.1587807 -0.158779,-0.1587807 H 22.129224 V 1.9273906 1.0881299 h -0.24951 -0.249511 v 0.7461595 0.7461593 l -0.238168,0.013717 -0.238167,0.013716 -0.01371,0.2381684 -0.01371,0.2381701 H 20.471006 19.815578 V 2.3356896 1.5871603 H 19.566066 19.316559 V 2.0861793 2.5852 h -0.249512 -0.24951 V 2.8347104 3.0842207 H 18.159739 17.50194 V 2.8347104 2.5852 H 17.297795 17.093651 V 2.8347104 3.0842207 H 15.823428 14.553196 V 2.8347104 2.5852 H 14.371735 14.190272 V 2.8347104 3.0842207 H 13.668571 13.146868 V 2.8347104 c 0,-0.2192664 -0.01099,-0.2495104 -0.09073,-0.2495104 -0.07973,0 -0.09074,0.030244 -0.09074,0.2495104 V 3.0842207 H 12.307606 11.649808 V 2.6759315 c 0,-0.3780452 -0.0067,-0.4082893 -0.09073,-0.4082893 -0.07345,0 -0.09073,0.030244 -0.09073,0.1587788 0,0.1285348 -0.01728,0.158779 -0.09074,0.158779 -0.06049,0 -0.09073,0.030244 -0.09073,0.090731 0,0.073448 -0.03025,0.090729 -0.158779,0.090729 -0.151218,0 -0.158779,0.00756 -0.158779,0.1587807 v 0.15878 H 10.019526 9.069725 L 9.055509,2.936782 C 9.0430102,2.8071396 9.0234976,2.7876288 8.893856,2.77513 L 8.7464183,2.7609158 V 1.9245291 1.0881413 H 8.4969087 8.2473984 V 1.8343017 2.580461 L 8.0092298,2.594177 7.7710609,2.6078939 7.7573496,2.8460624 7.7436382,3.0842316 H 7.0882092 6.432781 V 2.335702 1.5871726 H 6.2059528 5.9791257 v 0.499019 0.4990207 H 5.7296156 5.4801056 V 2.8347227 3.0842322 H 5.117182 4.7542584 V 2.8347227 2.5852123 H 4.5047483 4.2552384 V 2.8347227 3.0842322 H 3.5974394 2.9396402 V 2.6726167 c 0,-0.3675001 -0.00851,-0.4100029 -0.079389,-0.3965761 -0.052286,0.00991 -0.084243,0.065247 -0.093605,0.1621051 -0.010665,0.1103259 -0.036165,0.1470666 -0.1020724,0.1470666 -0.056655,0 -0.087857,0.031202 -0.087857,0.087856 0,0.065961 -0.036745,0.0914 -0.1474377,0.1020734 -0.1296419,0.0125 -0.1491536,0.03201 -0.1616533,0.1616525 l -0.014216,0.147438 H 1.1448306 0.03625135 Z M 2.5767062,2.244938 c 0,-0.1512197 0.00756,-0.1587808 0.1587792,-0.1587808 H 2.8942646 V 1.337628 0.58909693 H 2.7354854 c -0.1512181,0 -0.1587792,-0.007557 -0.1587792,-0.15877801 V 0.27153998 H 1.6693973 0.76208826 V 1.337628 2.4037169 H 1.6693973 2.5767062 Z M 1.6693973,1.6325037 V 1.4964068 H 2.1230518 2.5767062 V 1.6325037 1.7685995 H 2.1230518 1.6693973 Z m 0,-0.6124335 V 0.86129031 H 2.1230518 2.5767062 V 1.0200702 1.178849 H 2.1230518 1.6693973 Z m 2.9033889,1.066087 V 1.7685995 H 5.0264408 5.4800953 V 2.0890321 2.409464 L 5.6275332,2.39525 5.7749709,2.381036 l 0.0123,-0.8959688 0.012301,-0.89596803 h -0.159738 c -0.1523143,0 -0.1597383,-0.007372 -0.1597383,-0.15877888 V 0.27154174 H 4.7088826 3.93767 v 0.15877805 c 0,0.14617896 -0.010802,0.15877888 -0.1360964,0.15877888 H 3.6654773 v 0.90731003 0.907309 h 0.4536544 0.4536545 z m 0,-0.9299903 V 0.86129031 H 5.0264408 5.4800953 V 1.1561669 1.4510416 H 5.0264408 4.5727862 Z M 8.0659261,1.6325037 V 0.86129031 H 8.3608015 8.6556772 V 0.56641475 0.27153998 H 7.5895889 6.5235008 v 0.29280212 0.292804 l 0.3062168,0.013407 0.3062169,0.013408 0.012437,0.7598713 0.012438,0.7598713 H 7.6133674 8.065925 Z m 3.2124799,0.6010922 c 0.0125,-0.1296432 0.0303,-0.1474387 0.147438,-0.1474387 h 0.133223 V 1.178849 0.27153998 h -0.15878 -0.158779 V 1.0200702 1.7685995 H 10.810537 10.379565 V 1.0200702 0.27153998 H 9.9032275 9.4268902 V 1.178849 2.0861572 h 0.1587794 c 0.151426,0 0.1587794,0.0074 0.1587794,0.159876 v 0.1598759 l 0.759871,-0.01243 0.759872,-0.012431 z m 6.123536,-0.1587788 0.01341,-0.3062176 H 16.800843 16.186336 V 1.6325037 1.4964068 h 0.294877 0.294875 V 1.337628 1.178849 H 16.481213 16.186336 V 1.0200702 0.86129031 h 0.612434 0.612433 V 0.56641475 0.27153998 H 16.345116 15.279027 V 1.3384645 2.4053883 l 1.054748,-0.012174 1.054746,-0.012173 z M 21.448734,1.6325037 V 0.86129031 h 0.294876 0.294875 V 0.56641475 0.27153998 h -1.066089 -1.066088 v 0.29280212 0.292804 l 0.306217,0.013407 0.306218,0.013408 0.01243,0.7598713 0.01245,0.7598713 h 0.452557 0.452557 z m 5.207758,0.4423134 0.01341,-0.3062176 h 0.292802 0.292802 v 0.3175577 0.3175597 h 0.294877 0.294875 V 2.0861572 1.7685995 h -0.136096 c -0.120976,0 -0.136096,-0.015123 -0.136096,-0.1360958 0,-0.1209756 0.01512,-0.1360969 0.136096,-0.1360969 h 0.136096 V 1.0427532 0.58909693 h -0.136096 c -0.125296,0 -0.136096,-0.0126017 -0.136096,-0.15877801 V 0.27153998 H 26.643071 25.713079 V 1.3073839 c 0,0.5697152 0.0143,1.0501442 0.03178,1.0676214 0.01748,0.017477 0.226724,0.025984 0.464995,0.018902 l 0.433219,-0.012877 z m 0.0093,-0.8959681 V 0.86129031 h 0.294877 0.294874 V 1.178849 1.4964068 H 26.960646 26.66577 Z M 13.282963,1.9273784 V 1.4964068 h 0.136098 c 0.120973,0 0.136096,0.015123 0.136096,0.1360969 0,0.1252939 0.0126,0.1360958 0.158778,0.1360958 h 0.15878 V 2.063475 2.3583499 h 0.319201 0.3192 l -0.01299,-0.4423117 -0.01299,-0.4423136 -0.147437,-0.014214 c -0.129642,-0.0125 -0.147438,-0.030295 -0.147438,-0.1474386 0,-0.1220092 0.01337,-0.133221 0.15878,-0.133221 H 14.50782 V 0.72519534 0.27154174 H 14.349048 14.190269 V 0.56641649 0.86129207 H 14.03149 c -0.151219,0 -0.15878,0.007561 -0.15878,0.15877983 V 1.1788508 H 13.577839 13.282962 V 0.72519534 0.27154174 h -0.45366 -0.453654 V 1.3149475 2.3583516 h 0.453654 0.453655 z M 19.135096,1.3149458 V 0.27153998 H 18.681442 18.227786 V 1.3149458 2.3583499 h 0.453656 0.453654 z m 5.534584,0.910183 c 0,-0.1171435 0.01779,-0.134939 0.147439,-0.1474386 L 24.964557,2.063477 V 1.3149475 0.56641649 L 24.817119,0.5522023 C 24.687475,0.53970344 24.66968,0.52190711 24.66968,0.40476534 V 0.2715435 h -0.771212 -0.771213 v 0.13609585 c 0,0.12097553 -0.01512,0.1360967 -0.136097,0.1360967 H 22.855063 V 1.3149492 2.0861609 h 0.136095 c 0.120976,0 0.136097,0.015122 0.136097,0.1360958 v 0.1360967 h 0.771213 0.771212 z M 23.762372,1.3149458 V 0.86129031 h 0.453654 0.453654 V 1.3149458 1.7685995 h -0.453654 -0.453654 z m -6.260432,0.022682 v -0.24951 H 17.297796 17.093651 V 1.337628 1.5871383 h 0.204145 0.204144 z"
       id="path123" /></g></svg>
