<?xml version="1.0" encoding="UTF-8" standalone="no"?>
<!-- Created with Inkscape (http://www.inkscape.org/) -->

<svg
   width="10mm"
   height="10mm"
   viewBox="0 0 10 10"
   version="1.1"
   id="svg1"
   xml:space="preserve"
   inkscape:version="1.3 (0e150ed, 2023-07-21)"
   sodipodi:docname="clipboard-icon.svg"
   xmlns:inkscape="http://www.inkscape.org/namespaces/inkscape"
   xmlns:sodipodi="http://sodipodi.sourceforge.net/DTD/sodipodi-0.dtd"
   xmlns="http://www.w3.org/2000/svg"
   xmlns:svg="http://www.w3.org/2000/svg"><sodipodi:namedview
     id="namedview1"
     pagecolor="#dedede"
     bordercolor="#000000"
     borderopacity="0.25"
     inkscape:showpageshadow="2"
     inkscape:pageopacity="0.0"
     inkscape:pagecheckerboard="0"
     inkscape:deskcolor="#d1d1d1"
     inkscape:document-units="mm"
     showgrid="false"
     inkscape:zoom="12.243883"
     inkscape:cx="14.047831"
     inkscape:cy="24.624541"
     inkscape:window-width="1920"
     inkscape:window-height="1057"
     inkscape:window-x="0"
     inkscape:window-y="1080"
     inkscape:window-maximized="1"
     inkscape:current-layer="layer1" /><defs
     id="defs1" /><g
     inkscape:label="Layer 1"
     inkscape:groupmode="layer"
     id="layer1"><path
       style="fill:#ffffff;stroke-width:0.0666765"
       d="M 3.3992468,9.4315685 C 3.1694631,9.3585898 2.9843315,9.1979374 2.88123,8.9820449 L 2.8170785,8.8477095 2.8120657,5.8045516 c -0.0038,-2.3158036 1.5e-5,-3.0621321 0.016042,-3.1225444 0.036254,-0.1366358 0.1178342,-0.2780381 0.218494,-0.378698 0.1023939,-0.1023938 0.183827,-0.1514548 0.341339,-0.205647 0.09229,-0.031752 0.1944889,-0.0331 2.4971197,-0.032916 2.0037408,1.601e-4 2.4143142,0.00427 2.4820324,0.024819 0.2763799,0.083888 0.4760826,0.2788835 0.5743286,0.5607941 0.031146,0.089373 0.032545,0.2236444 0.032545,3.118909 v 3.0255165 l -0.038731,0.1014164 c -0.07732,0.202429 -0.2145575,0.36529 -0.3908641,0.46383 -0.1810726,0.1012026 -0.046865,0.096412 -2.6652735,0.09513 C 3.9825023,9.4542254 3.4548104,9.4492022 3.3992603,9.4315723 Z M 8.1359872,5.7604475 V 2.893705 H 5.8866975 3.6374076 V 5.7604475 8.627191 H 5.8866975 8.1359872 Z M 1.153922,4.0448125 1.158776,1.085452 1.197511,0.98403588 C 1.2748277,0.78160686 1.4120688,0.61874645 1.5883761,0.52020653 1.7696734,0.41887743 1.6241225,0.42389608 4.38155,0.42389608 h 2.5371727 v 0.414575 0.41457512 H 4.4577344 1.9967462 V 4.1286096 7.0041733 H 1.5729052 1.1490639 Z"
       id="path1" /></g></svg>
