<?xml version="1.0" encoding="UTF-8" standalone="no"?>
<!-- Created with Inkscape (http://www.inkscape.org/) -->

<svg
   width="10mm"
   height="10mm"
   viewBox="0 0 10 10"
   version="1.1"
   id="svg1"
   xml:space="preserve"
   inkscape:version="1.3 (0e150ed, 2023-07-21)"
   sodipodi:docname="editor-tab-icon.svg"
   xmlns:inkscape="http://www.inkscape.org/namespaces/inkscape"
   xmlns:sodipodi="http://sodipodi.sourceforge.net/DTD/sodipodi-0.dtd"
   xmlns="http://www.w3.org/2000/svg"
   xmlns:svg="http://www.w3.org/2000/svg"><sodipodi:namedview
     id="namedview1"
     pagecolor="#e0e0e0"
     bordercolor="#000000"
     borderopacity="0.25"
     inkscape:showpageshadow="2"
     inkscape:pageopacity="0.0"
     inkscape:pagecheckerboard="0"
     inkscape:deskcolor="#d1d1d1"
     inkscape:document-units="mm"
     showgrid="false"
     inkscape:zoom="17.315466"
     inkscape:cx="18.220705"
     inkscape:cy="20.068764"
     inkscape:window-width="1920"
     inkscape:window-height="1057"
     inkscape:window-x="0"
     inkscape:window-y="1080"
     inkscape:window-maximized="1"
     inkscape:current-layer="layer1" /><defs
     id="defs1" /><g
     inkscape:label="Layer 1"
     inkscape:groupmode="layer"
     id="layer1"><path
       style="fill:#ffffff;stroke-width:0.10928"
       d="M 0.72778021,9.2874607 C 0.6696086,9.2706862 0.61066862,9.2239978 0.57591989,9.1671846 0.52009871,9.0759116 0.51925525,9.0056564 0.52642246,5.0457426 l 0.007293,-4.0285854 0.0944252,-0.084366 0.0944251,-0.084366 H 3.2664982 5.810433 V 1.1375601 1.4266956 H 3.4539792 1.0975253 v 3.6575633 3.6575627 l 3.6214214,-6.557e-4 c 3.4691435,-6.557e-4 3.6264055,-0.00286 3.739936,-0.054457 0.1417323,-0.06437 0.2301756,-0.179868 0.2699916,-0.3525868 0.018162,-0.078783 0.029597,-0.8345332 0.030033,-1.9849165 l 6.556e-4,-1.857695 h 0.2752566 0.2752564 l -0.00779,2.0022632 -0.00779,2.0022631 -0.089875,0.1879375 C 9.0430248,9.0218179 8.7486137,9.2389831 8.3799023,9.2922872 8.1315918,9.328188 0.85302249,9.3235731 0.72772799,9.2874799 Z M 2.7144638,7.4140228 C 2.660307,7.3598686 2.6299469,7.2996925 2.6299469,7.2465082 c 0,-0.092539 0.6402022,-2.4821049 0.6883933,-2.5694395 C 3.3351618,4.6465841 4.22479,3.747986 5.2952913,2.6801839 6.5521788,1.4264652 7.2826262,0.7185767 7.3573111,0.68184614 7.657926,0.53400251 8.0237326,0.52504242 8.3149987,0.65838861 8.4494629,0.71994783 8.5788192,0.8299646 8.948348,1.1970476 9.5353944,1.7802065 9.5836547,1.862444 9.5836547,2.2796452 c 0,0.5026932 0.1275492,0.3462021 -2.1048729,2.5824639 -1.0686631,1.0705013 -1.9661312,1.9591469 -1.9943735,1.9747686 -0.028243,0.015624 -0.094894,0.033981 -0.148113,0.040789 -0.05322,0.00684 -0.6033729,0.1492977 -1.2225616,0.3166298 -0.6191899,0.1673321 -1.1683141,0.3042409 -1.2202766,0.3042409 -0.06587,0 -0.1200676,-0.025589 -0.1789933,-0.084519 z M 3.927717,6.6584916 C 4.2237487,6.5781255 4.5364029,6.492567 4.622502,6.4683646 L 4.7790482,6.4243665 4.247977,5.8927127 C 3.9558881,5.6002992 3.7135137,5.3644474 3.7093677,5.3685936 c -0.00903,0.00902 -0.3854956,1.3950125 -0.3854956,1.4192097 0,0.031005 0.063129,0.017483 0.6038449,-0.1293117 z M 7.6104124,2.547198 6.923938,1.8602772 5.4420122,3.3419938 3.9600855,4.8237105 4.6465599,5.5106316 5.3330332,6.1975522 6.8149589,4.7158354 8.2968857,3.2341187 Z M 5.3404446,4.8167158 5.1459685,4.6207381 6.0130591,3.754008 6.8801507,2.8872781 7.0751972,3.0823242 7.2702437,3.2773704 6.4025816,4.1450319 5.5349196,5.0126935 Z M 9.0346472,2.3741307 C 9.0694483,2.1420545 9.0199228,2.057934 8.592737,1.6235338 8.3786137,1.4057947 8.1561686,1.2050662 8.0984155,1.1774709 7.9777008,1.1197919 7.7596937,1.1143136 7.6581435,1.1664076 7.6199055,1.1860229 7.5266211,1.2620745 7.4508446,1.3354114 L 7.3130693,1.4687509 8.0002015,2.1569123 8.6873338,2.8450737 8.8509789,2.6763621 C 8.986197,2.5369576 9.0181023,2.4844564 9.0346472,2.3741307 Z"
       id="path2" /></g></svg>
