<?xml version="1.0" encoding="UTF-8" standalone="no"?>
<!-- Created with Inkscape (http://www.inkscape.org/) -->

<svg
   width="10mm"
   height="10mm"
   viewBox="0 0 10 10"
   version="1.1"
   id="svg1"
   xml:space="preserve"
   inkscape:version="1.3 (0e150ed, 2023-07-21)"
   sodipodi:docname="instruments-tab-icon.svg"
   xmlns:inkscape="http://www.inkscape.org/namespaces/inkscape"
   xmlns:sodipodi="http://sodipodi.sourceforge.net/DTD/sodipodi-0.dtd"
   xmlns="http://www.w3.org/2000/svg"
   xmlns:svg="http://www.w3.org/2000/svg"><sodipodi:namedview
     id="namedview1"
     pagecolor="#ffffff"
     bordercolor="#000000"
     borderopacity="0.25"
     inkscape:showpageshadow="2"
     inkscape:pageopacity="0.0"
     inkscape:pagecheckerboard="0"
     inkscape:deskcolor="#d1d1d1"
     inkscape:document-units="mm"
     showgrid="false"
     inkscape:zoom="8.6577329"
     inkscape:cx="26.277087"
     inkscape:cy="32.629789"
     inkscape:window-width="1920"
     inkscape:window-height="1057"
     inkscape:window-x="0"
     inkscape:window-y="1080"
     inkscape:window-maximized="1"
     inkscape:current-layer="layer1" /><defs
     id="defs1" /><g
     inkscape:label="Layer 1"
     inkscape:groupmode="layer"
     id="layer1"><path
       style="fill:#ffffff;stroke-width:0.0731497"
       d="M 2.8834176,9.3947098 2.8776138,9.2847295 2.6252636,9.2125837 C 2.0199244,9.0395225 1.5622955,8.8021984 1.298889,8.5247343 1.1154889,8.3315474 1.0292849,8.1363117 1.0292849,7.9141335 V 7.801521 H 0.9518683 0.8744517 V 7.878939 7.956356 H 0.71961811 0.56478434 V 5.5564357 3.1565169 h 0.15483377 0.15483371 v 0.077417 0.077417 h 0.0774166 0.0774166 l 2.195e-4,-0.111287 C 1.0303677,2.781399 1.3337011,2.4411411 1.9829232,2.1305826 2.1162554,2.0668026 2.2349291,2.0146195 2.2466439,2.0146195 c 0.011714,0 0.021299,-0.00931 0.021299,-0.020685 0,-0.011377 -0.1976438,-0.2164485 -0.4392075,-0.4557131 L 1.3895282,1.1031934 1.4997509,0.9929699 1.609974,0.88274655 2.1197615,1.3922626 2.6295496,1.901778 l 0.1240246,-0.03799 0.1240253,-0.03799 0.0058,-0.108808 0.0058,-0.1088079 H 3.043067 3.1969351 v 0.077417 c 0,0.04258 0.0045,0.077418 0.01,0.077418 0.0055,0 0.1165436,-0.017076 0.2467661,-0.037946 0.4978663,-0.07979 0.8331917,-0.1038691 1.4464056,-0.1038691 0.6143914,0 0.9558542,0.024435 1.4471457,0.1035627 0.1306299,0.021038 0.2416741,0.038253 0.2467654,0.038253 0.00509,0 0.00926,-0.034838 0.00926,-0.077418 V 1.6081835 H 6.7571913 6.911101 l 0.00576,0.1184775 0.00576,0.1184784 0.1240251,0.037997 0.1240251,0.037996 L 7.6757915,1.416282 C 7.9536167,1.138613 8.1898972,0.91142984 8.2008682,0.91142984 c 0.010971,0 0.062968,0.0436771 0.1155473,0.0970599 l 0.0956,0.09706 -0.4512762,0.451583 -0.451276,0.4515822 0.1130208,0.044528 C 7.9639761,2.1877853 8.2756825,2.3725687 8.4658,2.5531702 8.6657576,2.7431194 8.7709556,2.9650526 8.7709556,3.1969496 v 0.1144002 h 0.077418 0.077417 v -0.077416 -0.077416 h 0.154833 0.1548331 v 2.3999188 2.399919 H 9.080623 8.9257893 V 7.878938 7.8015203 H 8.8483727 8.770955 v 0.114401 c 0,0.4046026 -0.313829,0.76302 -0.9173719,1.04771 C 7.6352206,9.066632 7.3371226,9.1737794 7.087141,9.2391171 l -0.1645105,0.043 -0.0058,0.1112856 -0.0058,0.1112878 H 6.7571549 6.6032868 v -0.077412 c 0,-0.042579 -0.00416,-0.077412 -0.00926,-0.077412 -0.00509,0 -0.1161361,0.017217 -0.2467661,0.038253 C 5.858426,9.466847 5.514632,9.4913782 4.9001191,9.4913782 c -0.6133199,0 -0.9510461,-0.024186 -1.4464055,-0.1035725 -0.1302225,-0.020874 -0.2412675,-0.03794 -0.2467661,-0.03794 -0.0055,0 -0.01,0.034833 -0.01,0.077412 v 0.077412 H 3.0430822 2.8892147 Z M 5.8871887,9.147902 C 6.1571446,9.117966 6.4987866,9.067588 6.5694243,9.0473069 c 0.029821,-0.00852 0.03387,-0.037325 0.03387,-0.2406709 0,-0.1270208 -0.00416,-0.230946 -0.00926,-0.230946 -0.00509,0 -0.1161354,0.017214 -0.2467654,0.038253 -0.4888388,0.078731 -0.8326328,0.1032628 -1.4471457,0.1032628 -0.6133199,0 -0.9510461,-0.024183 -1.4464055,-0.1035713 C 3.3234994,8.5927647 3.2124544,8.57569 3.2069557,8.57569 c -0.0055,0 -0.01,0.104347 -0.01,0.2318815 0,0.2666194 -0.032664,0.231594 0.2612811,0.2801719 0.1546348,0.025556 0.5814903,0.07313 0.8515845,0.09491 0.2318751,0.018695 1.3094649,-0.00507 1.5773654,-0.034747 z M 2.8872902,8.7336023 V 8.5044316 L 2.7765122,8.4796405 C 2.5863384,8.437082 2.1216244,8.2706349 1.9145493,8.1709114 1.7108406,8.072809 1.486139,7.9322606 1.3921797,7.844176 l -0.053224,-0.049897 4.388e-4,0.1245848 c 5.121e-4,0.158424 0.044428,0.2569815 0.176726,0.3968671 0.1647657,0.1742154 0.424431,0.3302848 0.774385,0.4654376 0.1645268,0.06354 0.523729,0.1763777 0.5726055,0.1798729 0.01809,0.00129 0.024192,-0.056083 0.024192,-0.2274392 z M 7.2962595,8.8549291 C 7.7533828,8.7053921 8.0887236,8.5223599 8.2841445,8.3157311 8.4154642,8.1768791 8.4603276,8.0769939 8.4608705,7.9222625 L 8.4613093,7.8010762 8.3597002,7.8837702 C 8.2271777,7.9916246 7.9919115,8.1280765 7.7742358,8.2233356 7.5890546,8.3043746 7.1067113,8.4670039 6.9855528,8.4892523 l -0.072578,0.013328 V 8.734214 8.9658483 l 0.062901,-0.013344 c 0.034596,-0.00734 0.178775,-0.051247 0.3203981,-0.097574 z M 5.8871887,8.3735763 c 0.2534117,-0.028247 0.5578511,-0.072852 0.6725579,-0.09854 l 0.043548,-0.00975 V 6.7947348 c 0,-0.8088022 -0.00416,-1.4705493 -0.00926,-1.4705493 -0.00509,0 -0.1161354,0.017214 -0.2467654,0.038253 -0.4888388,0.07873 -0.8326328,0.1032628 -1.4471457,0.1032628 -0.6133199,0 -0.9510461,-0.024184 -1.4464055,-0.1035714 -0.1302226,-0.02087 -0.2412675,-0.037945 -0.2467662,-0.037945 -0.0055,0 -0.01,0.6617471 -0.01,1.4705493 V 8.265284 l 0.043547,0.00975 c 0.1808325,0.040496 0.6632539,0.1007018 1.0693223,0.1334498 0.2329408,0.018787 1.3093662,-0.00504 1.5773654,-0.03491 z M 2.8872902,6.7198405 V 5.2510768 L 2.8147118,5.2377486 C 2.6935539,5.2155004 2.2112101,5.0528711 2.0260287,4.9718323 1.8083536,4.8765731 1.5730873,4.7401211 1.4405653,4.632267 L 1.3389562,4.549573 1.3393951,5.9094271 c 5.12e-4,1.551526 -0.012445,1.4321164 0.176726,1.6321369 0.1647657,0.1742147 0.424431,0.3302847 0.7743848,0.4654369 0.1645269,0.06354 0.5237292,0.176377 0.5726055,0.1798735 0.019157,0.00137 0.024192,-0.304002 0.024192,-1.4670336 z M 7.1123894,8.1386423 C 7.6426348,7.9897885 8.0626413,7.77577 8.2841445,7.5415638 8.4733153,7.3415433 8.4603855,7.4609529 8.4608705,5.9094269 L 8.4613093,4.5495727 8.3559041,4.6354264 C 8.2189512,4.746976 8.0198627,4.8624918 7.7869536,4.965545 7.5935842,5.0511031 7.1129538,5.2143541 6.9855528,5.2377489 l -0.072578,0.013328 v 1.4687638 c 0,0.8078204 0.00482,1.4687644 0.010723,1.4687644 0.0059,0 0.090815,-0.022484 0.1887034,-0.049963 z M 1.0292886,5.5564357 V 3.6210173 H 0.9518719 0.8744553 v 1.9354184 1.9354185 h 0.0774166 0.0774167 z m 7.8965073,0 V 3.6210173 h -0.077416 -0.077416 v 1.9354184 1.9354185 h 0.077417 0.077417 z M 5.8871887,5.122231 C 6.1571446,5.092292 6.4987866,5.041916 6.5694243,5.0216349 c 0.029821,-0.00857 0.03387,-0.03733 0.03387,-0.2406712 0,-0.1270201 -0.00416,-0.2309461 -0.00926,-0.2309461 -0.00509,0 -0.1161354,0.017214 -0.2467654,0.038253 -0.4888403,0.078732 -0.8326343,0.1032628 -1.4471472,0.1032628 -0.6145137,0 -0.9583077,-0.024531 -1.4471458,-0.1032628 -0.1306307,-0.021038 -0.2416749,-0.038253 -0.2467661,-0.038253 -0.00509,0 -0.00926,0.104347 -0.00926,0.2318817 0,0.2666203 -0.032664,0.2315948 0.2612812,0.280172 0.1546348,0.025555 0.5814903,0.07313 0.8515845,0.094912 0.2318751,0.0187 1.3094649,-0.00504 1.5773659,-0.034752 z M 2.8872902,4.7079309 V 4.478761 L 2.7765122,4.4539698 C 2.5863384,4.4114106 2.1216244,4.2449643 1.9145493,4.1452408 1.7108406,4.0471384 1.486139,3.90659 1.3921797,3.8185046 L 1.338956,3.7686084 v 0.1256228 c 0,0.1715997 0.06137,0.2904073 0.2310722,0.4473404 0.2185091,0.2020664 0.5606704,0.3749214 1.0239961,0.5173094 0.134684,0.04139 0.2557672,0.075922 0.2690731,0.076738 0.018076,0.0011 0.024192,-0.056464 0.024193,-0.2276881 z M 7.1123894,4.8871388 C 7.6426348,4.738285 8.0626413,4.5242667 8.2841445,4.2900604 8.4154642,4.1512084 8.4603276,4.0513232 8.4608705,3.8965911 L 8.4613093,3.7754048 8.3597002,3.8580999 C 8.2271777,3.9659532 7.9919115,4.1024059 7.7742358,4.197665 7.5890546,4.2787039 7.1067113,4.4413332 6.9855528,4.4635816 l -0.072578,0.013327 v 0.2300967 c 0,0.1265527 0.00482,0.230096 0.010723,0.230096 0.0059,0 0.090815,-0.022484 0.1887034,-0.049963 z M 5.8871887,4.3479057 c 0.2534117,-0.028248 0.5578511,-0.072852 0.6725579,-0.09854 0.036235,-0.00811 0.043548,-0.022691 0.043548,-0.0868 v -0.077048 h 0.154833 c 0.1419309,0 0.1548337,0.00323 0.1548337,0.038708 0,0.021289 0.00482,0.038708 0.010723,0.038708 0.034185,0 0.3941933,-0.1101882 0.5505461,-0.1685061 C 7.8383469,3.8586177 8.1141007,3.6956886 8.2841445,3.5158924 8.519233,3.2673218 8.5200829,3.0466109 8.2869022,2.8000562 8.117061,2.6204752 7.7674418,2.4173246 7.4000614,2.2847489 l -0.1225561,-0.044227 -0.3187002,0.3187007 -0.3187006,0.3187 0.039333,0.09176 C 6.889174,3.4589776 6.6241257,3.9742528 6.1143937,4.0681748 5.5962263,4.1636511 5.1316585,3.6990833 5.2271342,3.1809159 5.2882413,2.8492786 5.5226831,2.6154849 5.8556567,2.5541321 c 0.1471246,-0.027108 0.3137172,-0.00524 0.4698309,0.06168 L 6.4171086,2.6550861 6.6650348,2.40771 C 6.8013936,2.271653 6.9129607,2.1551153 6.9129607,2.1487374 6.9129607,2.1216484 6.2119952,2.001314 5.7710636,1.9527083 5.4240956,1.9144607 4.303449,1.9207369 3.9420925,1.9629566 3.4957573,2.0150988 2.938778,2.1141837 2.9021497,2.1479584 c -0.0078,0.0072 0.098152,0.1251408 0.2354345,0.2621195 L 3.38719,2.6591253 3.4739099,2.6183619 C 3.8478267,2.4426008 4.3013847,2.585754 4.4896347,2.9389478 4.7417495,3.4119629 4.4728644,3.9712294 3.9467244,4.0681748 3.431537,4.1631018 2.9640073,3.6989883 3.058456,3.1863962 3.071119,3.1176722 3.099098,3.0203414 3.1206311,2.9701058 l 0.039152,-0.091338 -0.0927,-0.095358 C 3.016098,2.7309642 2.8752051,2.5877671 2.7539866,2.465196 L 2.5335895,2.2423382 2.4539968,2.2659684 C 2.3287264,2.3031606 1.9710479,2.4671286 1.8218987,2.5557362 1.53072,2.7287222 1.3389552,2.9672778 1.3389552,3.1565169 c 0,0.2624873 0.3093666,0.5508002 0.8334834,0.7767595 0.1478998,0.063763 0.6537635,0.2296469 0.700335,0.229655 0.00798,1.4e-6 0.014516,-0.017417 0.014516,-0.038706 0,-0.035483 0.012903,-0.038708 0.1548337,-0.038708 H 3.196957 v 0.077048 c 0,0.087484 -0.016937,0.079361 0.2612812,0.1253384 0.1546348,0.025554 0.5814902,0.07313 0.8515845,0.094912 0.2329408,0.018787 1.3093661,-0.00504 1.577366,-0.034909 z M 4.0600171,3.7071094 c 0.05795,-0.035827 0.1163936,-0.094388 0.1525237,-0.1528259 0.051847,-0.083861 0.058574,-0.1117609 0.058574,-0.2429337 0,-0.1311728 -0.00673,-0.1590721 -0.058574,-0.242933 C 4.1762345,3.009693 4.117948,2.9514066 4.0592249,2.915101 3.9753639,2.8632539 3.9474639,2.8565263 3.8162912,2.8565263 c -0.1311728,0 -0.1590728,0.00673 -0.2429331,0.058575 -0.3094232,0.191301 -0.2908153,0.6472042 0.033103,0.8110398 0.1437749,0.072721 0.3169005,0.065456 0.453556,-0.019032 z m 2.1676688,0 c 0.057949,-0.035827 0.1163935,-0.094388 0.1525228,-0.1528259 0.051848,-0.083861 0.058575,-0.1117609 0.058575,-0.2429337 0,-0.1311728 -0.00673,-0.1590721 -0.058575,-0.242933 C 6.3439031,3.009693 6.2856167,2.9514066 6.2268936,2.915101 6.1430326,2.8632539 6.1151326,2.8565263 5.9839599,2.8565263 c -0.1311728,0 -0.1590728,0.00673 -0.2429331,0.058575 -0.3094232,0.191301 -0.2908146,0.6472042 0.033103,0.8110398 0.1437749,0.072721 0.3169005,0.065456 0.4535561,-0.019032 z"
       id="path2" /><path
       style="fill:#000000"
       id="path1"
       d="" /></g></svg>
