<?xml version="1.0" encoding="UTF-8" standalone="no"?>
<!-- Created with Inkscape (http://www.inkscape.org/) -->

<svg
   width="8mm"
   height="8mm"
   viewBox="0 0 8 8"
   version="1.1"
   id="svg1"
   inkscape:version="1.3 (0e150ed, 2023-07-21)"
   sodipodi:docname="loop-icon.svg"
   xmlns:inkscape="http://www.inkscape.org/namespaces/inkscape"
   xmlns:sodipodi="http://sodipodi.sourceforge.net/DTD/sodipodi-0.dtd"
   xmlns="http://www.w3.org/2000/svg"
   xmlns:svg="http://www.w3.org/2000/svg">
  <sodipodi:namedview
     id="namedview1"
     pagecolor="#e0e0e0"
     bordercolor="#ffffff"
     borderopacity="1"
     inkscape:showpageshadow="0"
     inkscape:pageopacity="0"
     inkscape:pagecheckerboard="false"
     inkscape:deskcolor="#404040"
     inkscape:document-units="mm"
     inkscape:zoom="29.021908"
     inkscape:cx="22.293503"
     inkscape:cy="13.145242"
     inkscape:current-layer="layer1"
     showgrid="false" />
  <defs
     id="defs1" />
  <g
     inkscape:label="Layer 1"
     inkscape:groupmode="layer"
     id="layer1">
    <path
       style="fill:#ffffff;stroke-width:1"
       d="M 2.7103417,6.1840524 C 2.2594405,5.9230817 1.8960113,5.7006738 1.9027186,5.6898227 1.9170073,5.6667087 3.5014067,4.749676 3.5270759,4.749676 c 0.00959,0 0.017399,0.102904 0.017399,0.2286866 V 5.2070492 L 4.9809354,5.2067299 6.4173961,5.2064021 6.5614936,5.1393292 C 6.7155763,5.0675494 6.8452001,4.9353873 6.9076922,4.7862552 6.9656034,4.6480413 6.9628297,3.1669493 6.9043301,3.0270796 6.8124958,2.8072942 6.5430191,2.606647 6.3386906,2.6059158 L 6.2601027,2.6055964 V 2.1196289 1.6336615 l 0.1071988,4.371e-4 c 0.1760538,6.472e-4 0.4514813,0.078084 0.6718805,0.188737 0.4007394,0.2012439 0.7595709,0.6632483 0.8477323,1.091481 C 7.928856,3.1180147 7.9282678,4.69843 7.8861663,4.898245 7.8085869,5.2668097 7.5167106,5.6886208 7.1887343,5.9063219 7.1017248,5.9640651 6.9375808,6.0458134 6.8239604,6.0879567 l -0.2065728,0.076654 -1.5354143,0.00841 -1.5354143,0.00841 -0.00841,0.2386214 -0.00841,0.2386215 z M 1.3576043,6.1392531 C 0.74693006,5.9901378 0.25746611,5.4848387 0.12687571,4.8687178 0.07014113,4.6011912 0.07014113,3.2116309 0.12687571,2.9441127 0.26011373,2.3154683 0.77424672,1.7971244 1.3947466,1.6658532 1.495398,1.6445882 2.0397053,1.6338296 3.017011,1.6338296 H 4.4877984 V 1.3926195 1.1514092 l 0.3787684,0.2220634 c 0.208321,0.1221348 0.5749356,0.3347844 0.8147086,0.4725528 0.2397645,0.1377683 0.4359402,0.2590207 0.4359402,0.269443 0,0.010422 -0.1704475,0.1171254 -0.3787685,0.237117 C 5.5301261,2.4725685 5.1683023,2.6815367 4.9343962,2.8169432 4.70049,2.9523498 4.5043228,3.0631461 4.4984561,3.0631461 c -0.00588,0 -0.010675,-0.1033578 -0.010675,-0.22967 v -0.22967 L 3.008446,2.6122115 C 1.3613362,2.6212888 1.4573227,2.6096897 1.2491866,2.8239867 1.0732338,3.0051423 1.0574322,3.0944804 1.0574322,3.908214 c 0,0.7686401 0.012944,0.8595247 0.1484345,1.0436221 0.084807,0.1152258 0.2617943,0.2187602 0.416146,0.2434376 l 0.1214876,0.019416 v 0.482311 0.4823112 L 1.6220127,6.1767904 C 1.555192,6.1751094 1.4362007,6.1586353 1.3575875,6.1394717 Z"
       id="path130" />
  </g>
</svg>
