<?xml version="1.0" encoding="UTF-8" standalone="no"?>
<!-- Created with Inkscape (http://www.inkscape.org/) -->

<svg
   width="8mm"
   height="8mm"
   viewBox="0 0 8 8"
   version="1.1"
   id="svg1"
   inkscape:version="1.3 (0e150ed, 2023-07-21)"
   sodipodi:docname="player-icon.svg"
   xmlns:inkscape="http://www.inkscape.org/namespaces/inkscape"
   xmlns:sodipodi="http://sodipodi.sourceforge.net/DTD/sodipodi-0.dtd"
   xmlns="http://www.w3.org/2000/svg"
   xmlns:svg="http://www.w3.org/2000/svg">
  <sodipodi:namedview
     id="namedview1"
     pagecolor="#e0e0e0"
     bordercolor="#ffffff"
     borderopacity="1"
     inkscape:showpageshadow="0"
     inkscape:pageopacity="0"
     inkscape:pagecheckerboard="false"
     inkscape:deskcolor="#404040"
     inkscape:document-units="mm"
     inkscape:zoom="14.510954"
     inkscape:cx="32.079214"
     inkscape:cy="34.077704"
     inkscape:current-layer="layer1"
     showgrid="false" />
  <defs
     id="defs1" />
  <g
     inkscape:label="Layer 1"
     inkscape:groupmode="layer"
     id="layer1">
    <path
       style="fill:#ffffff;stroke-width:0.999999"
       d="M 3.8746287,7.9980861 C 2.5789532,7.9579484 1.3870453,7.2935065 0.66535157,6.2091485 0.29993627,5.6601105 0.07618396,5.027171 0.01650864,4.3737644 0.00334365,4.2296354 0,4.1535099 0,3.9998233 0,3.8066696 0.01027204,3.6449345 0.03370907,3.4713467 0.11605311,2.8602471 0.32948516,2.2942108 0.67026224,1.7831831 1.1837197,1.0131989 1.955216,0.43911406 2.8346715,0.17260163 3.6307946,-0.0686649 4.4816907,-0.05673886 5.2695562,0.20676586 5.9087665,0.42053333 6.4842922,0.79390853 6.9433078,1.292633 7.324802,1.7071415 7.6162785,2.2000286 7.7939807,2.7311147 8.1259259,3.7231873 8.0544681,4.8136131 7.5960594,5.751285 7.1194105,6.726265 6.2672377,7.4682366 5.2390231,7.8035072 4.8029823,7.945687 4.3352805,8.0123911 3.8746497,7.9981071 Z M 4.2976303,5.0359112 C 5.2844339,4.466186 6.0905649,3.9988382 6.0890325,3.997371 6.0854725,3.9942271 2.4896735,1.9183309 2.4872648,1.9183309 c -0.00115,0 -0.00199,0.9367287 -0.00199,2.0816181 v 2.0816182 l 0.00901,-0.00524 c 0.00493,-0.00314 0.816382,-0.4710366 1.8031856,-1.0407619 z"
       id="path127"
       sodipodi:nodetypes="ccsscccccsssccccsscccc" />
  </g>
</svg>
