<?xml version="1.0" encoding="UTF-8" standalone="no"?>
<!-- Created with Inkscape (http://www.inkscape.org/) -->

<svg
   width="10mm"
   height="10mm"
   viewBox="0 0 10 10"
   version="1.1"
   id="svg1"
   xml:space="preserve"
   inkscape:version="1.3 (0e150ed, 2023-07-21)"
   sodipodi:docname="reload-icon.svg"
   xmlns:inkscape="http://www.inkscape.org/namespaces/inkscape"
   xmlns:sodipodi="http://sodipodi.sourceforge.net/DTD/sodipodi-0.dtd"
   xmlns="http://www.w3.org/2000/svg"
   xmlns:svg="http://www.w3.org/2000/svg"><sodipodi:namedview
     id="namedview1"
     pagecolor="#dedede"
     bordercolor="#000000"
     borderopacity="0.25"
     inkscape:showpageshadow="2"
     inkscape:pageopacity="0.0"
     inkscape:pagecheckerboard="0"
     inkscape:deskcolor="#d1d1d1"
     inkscape:document-units="mm"
     showgrid="false"
     inkscape:zoom="17.315466"
     inkscape:cx="16.863537"
     inkscape:cy="21.108297"
     inkscape:window-width="1920"
     inkscape:window-height="1057"
     inkscape:window-x="0"
     inkscape:window-y="1080"
     inkscape:window-maximized="1"
     inkscape:current-layer="layer1" /><defs
     id="defs1" /><g
     inkscape:label="Layer 1"
     inkscape:groupmode="layer"
     id="layer1"><path
       style="font-variation-settings:normal;opacity:1;vector-effect:none;fill:#ffffff;fill-opacity:1;stroke-width:0.00483555;stroke-linecap:butt;stroke-linejoin:miter;stroke-miterlimit:4;stroke-dasharray:none;stroke-dashoffset:0;stroke-opacity:1;-inkscape-stroke:none;stop-color:#000000;stop-opacity:1"
       d="M 4.1424897,9.5980409 C 4.0064907,9.5286894 3.9979458,9.4997442 3.9909658,9.0846844 3.9852556,8.7478161 3.9882467,8.7050862 4.0227525,8.6271354 4.0947688,8.4643271 4.0434451,8.4721433 5.1188348,8.4602036 6.0057857,8.4504147 6.0827209,8.4467438 6.2659159,8.4071396 6.744114,8.3036221 7.1143026,8.1105635 7.4493042,7.7900059 7.8260513,7.4295015 8.0638846,6.9967483 8.1644192,6.4888029 8.209285,6.2621153 8.2091762,5.824223 8.1641868,5.596842 8.0196416,4.8662605 7.5473739,4.2375814 6.8917712,3.9030162 6.6898727,3.7999881 6.4298254,3.7136365 6.201524,3.6738243 5.9526184,3.6304133 3.0347627,3.6306172 2.9507808,3.6740486 c -0.065871,0.034057 -0.088943,0.1022123 -0.056123,0.1657613 0.01278,0.02473 0.2639112,0.287225 0.5580918,0.5833253 L 3.987624,4.9614955 V 5.06209 c 0,0.055334 -0.012372,0.123911 -0.027463,0.152413 -0.032766,0.061819 -0.5012944,0.5277734 -0.5613207,0.5582291 -0.023058,0.011692 -0.083341,0.021264 -0.1339854,0.021264 h -0.09207 L 1.8915863,4.5133276 C 0.99023902,3.6123528 0.60426446,3.2141054 0.58973476,3.1700813 0.54348226,3.029956 0.51217141,3.0658432 1.854727,1.7199919 2.5476295,1.0253846 3.1378655,0.44469953 3.1663634,0.42958114 c 0.066075,-0.0350497 0.1940933,-0.035308 0.2609473,-5.3023e-4 0.028497,0.0148329 0.161136,0.13841897 0.2947516,0.27464767 0.2196097,0.22390317 0.2441594,0.25586253 0.2556518,0.33282092 0.00734,0.049339 0.00367,0.1093364 -0.00897,0.1426975 -0.0121,0.032263 -0.243708,0.2811097 -0.5267932,0.5660534 -0.277844,0.2796699 -0.5153156,0.5282438 -0.5277149,0.5523884 -0.031787,0.061915 -0.00965,0.1125314 0.059984,0.1367861 0.040216,0.014017 0.444746,0.0211 1.2416567,0.021753 1.5196802,0.00123 1.985532,0.018041 2.3004134,0.083042 1.1055405,0.228208 2.0220362,0.9419622 2.5077975,1.9530402 0.4776706,0.9942357 0.4680163,2.1726942 -0.025873,3.157935 C 8.4341127,8.7755295 7.3612259,9.4999916 6.0924744,9.6123069 5.9742872,9.6227755 5.5019801,9.6313816 5.0429002,9.6314632 4.2859554,9.6315855 4.2020822,9.6284721 4.1424149,9.598045 Z"
       id="path2" /></g></svg>
