<?xml version="1.0" encoding="UTF-8" standalone="no"?>
<!-- Created with Inkscape (http://www.inkscape.org/) -->

<svg
   width="6mm"
   height="8mm"
   viewBox="0 0 6 8"
   version="1.1"
   id="svg1"
   inkscape:version="1.3 (0e150ed, 2023-07-21)"
   sodipodi:docname="score-icon.svg"
   xmlns:inkscape="http://www.inkscape.org/namespaces/inkscape"
   xmlns:sodipodi="http://sodipodi.sourceforge.net/DTD/sodipodi-0.dtd"
   xmlns="http://www.w3.org/2000/svg"
   xmlns:svg="http://www.w3.org/2000/svg">
  <sodipodi:namedview
     id="namedview1"
     pagecolor="#e0e0e0"
     bordercolor="#ffffff"
     borderopacity="1"
     inkscape:showpageshadow="0"
     inkscape:pageopacity="0"
     inkscape:pagecheckerboard="false"
     inkscape:deskcolor="#404040"
     inkscape:document-units="mm"
     inkscape:zoom="58.043814"
     inkscape:cx="11.250122"
     inkscape:cy="14.756094"
     inkscape:current-layer="layer1" />
  <defs
     id="defs1" />
  <g
     inkscape:label="Layer 1"
     inkscape:groupmode="layer"
     id="layer1">
    <path
       style="fill:#ffffff;stroke-width:1"
       d="m 0.65259773,7.2755032 -0.640124,-0.63935 0.0043,-3.17978 0.0042,-3.17976997 0.05024,-0.0716 c 0.02763,-0.0394 0.08333,-0.0901 0.123775,-0.11282 0.06595,-0.037 0.09736,-0.0421 0.30458,-0.0495 l 0.231048,-0.008 c 0.87468307,9.7e-4 1.74936307,0.005 2.62404107,0.008 l 2.376494,0.008 0.07353,0.0412 c 0.04044,0.0227 0.09614,0.0735 0.123775,0.11282 l 0.05024,0.0716 0.0042,3.39003997 0.004,3.82863 c -0.0074,0.16398 -0.01288,0.18979 -0.05326,0.25077 -0.02476,0.0374 -0.08046,0.0888 -0.123775,0.11427 l -0.07876,0.0463 -0.535831,0.005 c -0.392524,0.004 -0.545693,-3.2e-4 -0.572704,-0.0147 -0.07275,-0.0389 -0.07786,-0.15469 -0.0091,-0.20689 0.02197,-0.0167 0.144088,-0.0217 0.537007,-0.0221 0.299084,-3.2e-4 0.520999,-0.007 0.538751,-0.0167 0.0166,-0.009 0.03839,-0.0397 0.04843,-0.0685 0.02592,-0.0744 0.02592,-7.13339997 0,-7.20775997 -0.01004,-0.0288 -0.03182,-0.0596 -0.04843,-0.0685 -0.01933,-0.0104 -0.988874,-0.0162 -2.696575,-0.0162 -2.61888507,0 -2.66695907,4.9e-4 -2.69847307,0.0321 -0.01765,0.0177 -0.03646,0.0566 -0.0418,0.0866 -0.0053,0.03 -0.0076,1.40247997 -0.005,3.04992997 l 0.0047,2.99537 0.488102,0.008 0.48810407,0.008 0.06798,0.045 c 0.03739,0.0248 0.08881,0.0805 0.114271,0.12377 l 0.0463,0.0788 0.0051,0.47447 0.0051,0.47447 h 1.333623 c 1.324199,0 1.333929,3.2e-4 1.377106,0.0342 0.06014,0.0473 0.06014,0.13184 0,0.17914 -0.04323,0.034 -0.05189,0.0342 -1.464187,0.0342 h -1.420704 z m 0.54645407,-0.51098 c -0.01062,-0.02 -0.04164,-0.0441 -0.06893,-0.0536 -0.05605,-0.0195 -0.68831507,-0.0242 -0.68831507,-0.005 0,0.007 0.172668,0.18504 0.383705,0.39623 l 0.38370507,0.38399 0.0046,-0.3426 c 0.0032,-0.23809 -0.0013,-0.35369 -0.01475,-0.37894 z m 2.980785,-0.36158 c -0.209176,-0.0524 -0.316426,-0.17798 -0.300351,-0.35169 0.0047,-0.0506 0.01378,-0.10877 0.02021,-0.1292 l 0.01169,-0.0371 h -1.544996 c -1.52299107,0 -1.54546507,-4.8e-4 -1.57800107,-0.033 -0.04214,-0.0421 -0.04366,-0.13377 -0.0028,-0.17072 0.02394,-0.0217 0.06506,-0.0273 0.19879104,-0.0273 H 1.1529868 l -0.01041,-0.0555 c -0.0095,-0.0505 0.0024,-0.11984 0.03364,-0.1962 0.01083,-0.0265 -0.0034,-0.0289 -0.171495,-0.0289 -0.16130007,0 -0.18726607,-0.004 -0.21631107,-0.033 -0.04914,-0.0491 -0.04401,-0.13748 0.01047,-0.18034 0.04183,-0.0329 0.06262,-0.0342 0.54461407,-0.0342 h 0.501128 v -0.13202 -0.13203 h -0.501128 c -0.48198907,0 -0.50278907,-0.001 -0.54461407,-0.0342 -0.05449,-0.0429 -0.05962,-0.13119 -0.01047,-0.18034 0.03159,-0.0316 0.05501,-0.033 0.54461307,-0.033 h 0.511606 v -0.28131 c 0,-0.28 1.61e-4,-0.28151 0.04235,-0.32366 0.03429,-0.0343 0.05231,-0.0404 0.09467,-0.0319 0.09787,0.0196 0.101767,0.0322 0.107464,0.34859 l 0.0052,0.28827 h 0.576555 0.576556 v -0.27689 c 0,-0.29889 0.0093,-0.33658 0.08825,-0.35639 0.02354,-0.006 0.296405,0.0496 0.674947,0.1372 0.785511,0.18186 0.767475,0.17694 0.787843,0.215 0.0092,0.0172 0.01678,0.0875 0.01678,0.15622 v 0.12486 h 0.157532 c 0.145253,0 0.16069,0.003 0.198041,0.0405 0.04858,0.0486 0.05186,0.10684 0.009,0.15983 -0.02869,0.0354 -0.04649,0.0395 -0.19804,0.0446 l -0.166517,0.006 v 0.12893 0.12894 l 0.166517,0.006 c 0.15155,0.005 0.16935,0.009 0.19804,0.0446 0.04287,0.053 0.0396,0.11125 -0.009,0.15983 -0.03738,0.0374 -0.05275,0.0405 -0.198708,0.0405 h -0.1582 l 0.0048,0.13615 0.0048,0.13616 0.160175,0.005 c 0.150147,0.004 0.162285,0.007 0.193913,0.0476 0.04258,0.0541 0.04258,0.0888 0,0.1429 -0.03163,0.0402 -0.04377,0.0432 -0.193913,0.0476 l -0.160175,0.005 -0.0097,0.10094 c -0.016,0.16706 -0.12954,0.30275 -0.309754,0.37018 -0.09076,0.034 -0.26164,0.0543 -0.324216,0.0387 z m 0.200215,-0.25623 c 0.08574,-0.0216 0.187616,-0.10859 0.187616,-0.16021 0,-0.0847 -0.16811,-0.11733 -0.309748,-0.0602 -0.135936,0.0549 -0.180717,0.17173 -0.08221,0.21455 0.06613,0.0287 0.108545,0.0299 0.204341,0.006 z m -1.832376,-0.54745 c -0.0059,-0.0314 3.22e-4,-0.0892 0.01449,-0.13616 0.01361,-0.0448 0.02482,-0.0834 0.02491,-0.0857 1.25e-4,-0.002 -0.111219,-0.004 -0.247372,-0.004 h -0.247552 v 0.0639 c 0,0.0352 -0.01113,0.0955 -0.02475,0.1341 -0.01362,0.0386 -0.02475,0.0729 -0.02475,0.0763 0,0.003 0.115939,0.006 0.257641,0.006 h 0.257638 z m 2.019992,-0.0857 v -0.14029 h -0.536361 -0.536363 v 0.0748 c 0,0.0411 -0.01113,0.10146 -0.02475,0.13404 -0.01362,0.0326 -0.02475,0.0621 -0.02475,0.0655 0,0.003 0.252502,0.006 0.561116,0.006 h 0.561118 z m -2.855995,0.0912 c 0.06533,-0.0333 0.132929,-0.10473 0.132929,-0.1404 0,-0.0881 -0.215675,-0.11397 -0.344063,-0.0413 -0.0846,0.0479 -0.127423,0.11636 -0.102218,0.16345 0.0224,0.0419 0.04141,0.048 0.154004,0.0495 0.06465,8e-4 0.116182,-0.009 0.159348,-0.0312 z m 1.381989,0.015 c 0.05987,-0.0226 0.153731,-0.11306 0.153731,-0.1482 0,-0.11289 -0.253638,-0.12752 -0.379201,-0.0219 -0.09102,0.0766 -0.100518,0.13296 -0.02829,0.16786 0.04763,0.023 0.195159,0.0243 0.253765,0.002 z m 0.153731,-0.62612 v -0.13203 h -0.57762 -0.57762 v 0.13203 0.13203 h 0.57762 0.57762 z m 1.320275,0 v -0.13203 h -0.536361 -0.536363 v 0.13203 0.13203 h 0.536363 0.536361 z m 0,-0.43623 c 0,-0.0398 -0.0086,-0.0591 -0.02888,-0.0649 -0.01588,-0.005 -0.244251,-0.0574 -0.507479,-0.11742 -0.26323,-0.0601 -0.491597,-0.11307 -0.507481,-0.11779 -0.02628,-0.008 -0.02888,0.008 -0.02888,0.17407 v 0.18265 h 0.536363 0.536361 z m -2.016667,-1.17025 c -0.220111,-0.0619 -0.329515,-0.25005 -0.252555,-0.43424 0.01362,-0.0326 0.02475,-0.062 0.02475,-0.0655 0,-0.003 -0.337908,-0.006 -0.750906,-0.006 -0.72890107,0 -0.75187207,-9.7e-4 -0.78391107,-0.033 -0.04214,-0.0421 -0.04366,-0.13378 -0.0028,-0.17073 0.01793,-0.0162 0.05812,-0.0273 0.09902,-0.0273 h 0.06884 v -0.0831 c 0,-0.0457 0.01076,-0.1088 0.02391,-0.14028 l 0.02391,-0.0572 h -0.08993 c -0.109338,0 -0.155939,-0.0366 -0.155939,-0.12258 0,-0.0414 0.01161,-0.0657 0.04348,-0.0908 0.04129,-0.0325 0.06378,-0.0342 0.44559407,-0.0342 h 0.402108 v -0.13203 -0.13203 h -0.402108 c -0.38181407,0 -0.40430407,-0.002 -0.44559407,-0.0342 -0.05449,-0.0429 -0.05962,-0.1312 -0.01047,-0.18034 0.03125,-0.0312 0.05501,-0.033 0.44559307,-0.033 h 0.412586 v -0.26327 c 0,-0.16053 0.0073,-0.27925 0.01864,-0.3042 0.04152,-0.0911 0.05176,-0.0901 0.789253,0.0808 0.375455,0.087 0.696233,0.16548 0.712839,0.17436 0.03623,0.0194 0.04555,0.0553 0.05112,0.19675 l 0.0042,0.10727 0.348755,0.004 0.348755,0.004 0.0067,-0.10567 c 0.0081,-0.12719 0.06002,-0.21653 0.172083,-0.29613 0.106377,-0.0755 0.211425,-0.10897 0.345041,-0.10977 0.185311,-10e-4 0.292905,0.0452 0.371437,0.1598 0.04976,0.0726 0.06222,0.20572 0.02712,0.28972 l -0.02565,0.0614 h 0.156691 c 0.144357,0 0.159878,0.003 0.197199,0.0405 0.04859,0.0486 0.05186,0.10685 0.009,0.15983 l -0.03153,0.039 -0.488326,0.005 -0.48833,0.005 v 0.13062 0.13062 l 0.48833,0.005 0.488326,0.005 0.03153,0.039 c 0.04288,0.053 0.03961,0.11124 -0.009,0.15983 l -0.04051,0.0405 h -0.47935 -0.479349 v 0.14027 0.14028 h 0.485654 0.485652 l 0.0342,0.0435 c 0.04315,0.0549 0.04315,0.0892 0,0.14408 l -0.0342,0.0435 h -0.484753 -0.484753 l -0.02153,0.0448 c -0.01184,0.0246 -0.04195,0.0562 -0.06691,0.0701 -0.04082,0.0228 -0.04995,0.0228 -0.09077,0 -0.02496,-0.0139 -0.05514,-0.0457 -0.06707,-0.0705 l -0.02169,-0.0451 -0.341385,0.004 -0.341387,0.004 -0.0088,0.099 c -0.01025,0.11585 -0.03914,0.17523 -0.12603,0.25907 -0.130618,0.12602 -0.366839,0.18746 -0.536843,0.13962 z m 0.252616,-0.2508 c 0.146696,-0.0517 0.21302,-0.17342 0.1213,-0.22251 -0.143698,-0.0769 -0.46285,0.067 -0.393802,0.17763 0.04396,0.0704 0.150475,0.0879 0.272502,0.0449 z m 0.176263,-0.63061 0.0048,-0.13616 h -0.54528 -0.54528 v 0.0833 c 0,0.0458 -0.01084,0.10431 -0.0241,0.12994 -0.01325,0.0256 -0.01934,0.0514 -0.01354,0.0572 0.0058,0.006 0.259872,0.009 0.564586,0.006 l 0.554024,-0.004 z m 0.940701,-3.2e-4 0.0048,-0.13649 -0.351369,0.004 -0.351372,0.004 -0.0049,0.11389 c -0.0027,0.0626 -9.63e-4,0.12406 0.0037,0.13649 0.007,0.0183 0.07343,0.0218 0.351507,0.0181 l 0.342836,-0.004 z m -2.413927,0.10438 c 0.07877,-0.0329 0.139907,-0.0983 0.139907,-0.14953 0,-0.0333 -0.01275,-0.0482 -0.05723,-0.0668 -0.07336,-0.0307 -0.135224,-0.0302 -0.225144,10e-4 -0.141273,0.0498 -0.205383,0.15775 -0.126537,0.21297 0.04663,0.0327 0.192844,0.0337 0.269006,0.002 z m 1.476685,-0.61978 v -0.13203 h -0.544614 -0.544612 v 0.13203 0.13202 h 0.544612 0.544614 z m 0.940695,0 v -0.13203 h -0.354823 -0.354825 v 0.13203 0.13202 h 0.354825 0.354823 z m -0.940695,-0.4357 c 0,-0.0534 -0.0038,-0.057 -0.07839,-0.0742 -0.737881,-0.17017 -0.942598,-0.21741 -0.973701,-0.2247 -0.03679,-0.009 -0.03713,-0.007 -0.03713,0.17315 v 0.18186 h 0.544612 0.544614 z m 1.443001,0.0382 c 0.09272,-0.0233 0.190838,-0.10363 0.190838,-0.15615 0,-0.0896 -0.163658,-0.12399 -0.309748,-0.065 -0.135936,0.0549 -0.180717,0.17173 -0.08221,0.21454 0.06563,0.0285 0.108588,0.03 0.201119,0.007 z"
       id="path126"
       sodipodi:nodetypes="ccccssscccsscccsscscsssssssssscccsscccscssccsssscssscsscscsscsssssscccsssscscsscccssssscsssscccsssscccsssscssccsssssssccscsssscsccccssssccssssssssssssccccccccccccccccccssssscccscsssssscsscsssscccsssscssssscccssssscssscccccccsscccccccsscccsssscccssccssssccccsssscccccccssccsssssssccccccccccccccccccsssscccssssss" />
  </g>
</svg>
