<?xml version="1.0" encoding="UTF-8" standalone="no"?>
<!-- Created with Inkscape (http://www.inkscape.org/) -->

<svg
   width="10mm"
   height="10mm"
   viewBox="0 0 10 10"
   version="1.1"
   id="svg1"
   inkscape:version="1.3 (0e150ed, 2023-07-21)"
   sodipodi:docname="score-tab-icon.svg"
   xmlns:inkscape="http://www.inkscape.org/namespaces/inkscape"
   xmlns:sodipodi="http://sodipodi.sourceforge.net/DTD/sodipodi-0.dtd"
   xmlns="http://www.w3.org/2000/svg"
   xmlns:svg="http://www.w3.org/2000/svg">
  <sodipodi:namedview
     id="namedview1"
     pagecolor="#e0e0e0"
     bordercolor="#ffffff"
     borderopacity="1"
     inkscape:showpageshadow="0"
     inkscape:pageopacity="0"
     inkscape:pagecheckerboard="false"
     inkscape:deskcolor="#404040"
     inkscape:document-units="mm"
     inkscape:zoom="14.510954"
     inkscape:cx="21.328716"
     inkscape:cy="20.295014"
     inkscape:current-layer="layer1"
     showgrid="false"
     inkscape:window-width="1920"
     inkscape:window-height="1057"
     inkscape:window-x="0"
     inkscape:window-y="1080"
     inkscape:window-maximized="1" />
  <defs
     id="defs1" />
  <g
     inkscape:label="Layer 1"
     inkscape:groupmode="layer"
     id="layer1">
    <path
       style="fill:#ffffff;stroke-width:1.1816"
       d="m 2.2635705,8.8892949 -0.7563724,-0.7554578 0.00508,-3.757237 0.00496,-3.75722531 0.059364,-0.0846028 c 0.032648,-0.0465552 0.098463,-0.10646242 0.1462529,-0.1333084 0.077927,-0.0437193 0.1150408,-0.0497455 0.3598926,-0.0584893 l 0.2730069,-0.009453 c 1.0335281,0.001146 2.0670524,0.005908 3.1005744,0.009453 l 2.8080721,0.009453 0.086883,0.048682 c 0.047784,0.0268224 0.1135993,0.0868478 0.1462529,0.13330839 l 0.059364,0.0846028 0.00496,4.00568092 0.00473,4.5239201 c -0.00874,0.193759 -0.015217,0.2242562 -0.06293,0.2963103 -0.029257,0.044192 -0.095072,0.1049263 -0.1462529,0.1350218 l -0.093063,0.054708 -0.6331394,0.00591 c -0.4638075,0.00473 -0.6447924,-3.781e-4 -0.6767087,-0.01737 -0.085962,-0.045964 -0.092,-0.1827821 -0.010753,-0.2444618 0.02596,-0.019733 0.1702548,-0.025641 0.634529,-0.026113 0.3533985,-3.781e-4 0.6156139,-0.00827 0.6365897,-0.019733 0.019615,-0.010634 0.045362,-0.04691 0.057225,-0.08094 0.030627,-0.087911 0.030627,-8.42884565 0,-8.51670964 -0.011863,-0.0340302 -0.037599,-0.0704235 -0.057225,-0.0809398 -0.02284,-0.0122887 -1.1684563,-0.019142 -3.1862807,-0.019142 -3.094482,0 -3.1512864,5.7899e-4 -3.1885234,0.0379294 -0.020855,0.0209144 -0.043081,0.0668787 -0.049391,0.10232681 -0.00626,0.0354481 -0.00898,1.65717433 -0.00591,3.60380593 l 0.00555,3.5393377 0.5767427,0.00945 0.5767452,0.00945 0.080325,0.053172 c 0.04418,0.029304 0.1049381,0.095119 0.1350229,0.146247 l 0.054708,0.09311 0.00603,0.5606351 0.00603,0.5606351 h 1.5758127 c 1.5646773,0 1.5761743,3.781e-4 1.6271923,0.040411 0.071062,0.05589 0.071062,0.1557825 0,0.2116723 -0.051081,0.040174 -0.061313,0.040411 -1.7300875,0.040411 H 3.0201201 Z M 2.9092622,8.2855195 c -0.012549,-0.023632 -0.049202,-0.052109 -0.081448,-0.063334 -0.066229,-0.023041 -0.8133151,-0.028595 -0.8133151,-0.00591 0,0.00827 0.204025,0.2186437 0.4533869,0.4681864 l 0.4533871,0.4537237 0.00544,-0.4048171 C 2.9304897,8.4520428 2.9251724,8.3154495 2.9092799,8.285614 Z m 3.522104,-0.427244 C 6.1842032,7.7963595 6.0574763,7.6479739 6.0764706,7.4427176 c 0.00555,-0.059789 0.016282,-0.1285229 0.02388,-0.1526631 l 0.013813,-0.043837 H 4.2885921 c -1.7995706,0 -1.826126,-5.672e-4 -1.8645706,-0.038993 -0.049793,-0.049745 -0.051589,-0.158063 -0.00331,-0.2017233 0.028288,-0.025641 0.076875,-0.032258 0.234892,-0.032258 h 0.1992266 l -0.012301,-0.065579 c -0.011225,-0.059671 0.00284,-0.1416032 0.039749,-0.2318304 0.012797,-0.031313 -0.00402,-0.034148 -0.202639,-0.034148 -0.1905927,0 -0.2212742,-0.00473 -0.2555938,-0.038993 -0.058062,-0.058017 -0.052,-0.162447 0.012374,-0.2130905 0.049426,-0.038875 0.073992,-0.040411 0.6435175,-0.040411 H 3.6720707 V 6.1931963 6.0371892 H 3.0799364 c -0.5695197,0 -0.594097,-0.00118 -0.6435175,-0.040411 -0.064386,-0.050691 -0.070447,-0.1550144 -0.012371,-0.2130902 0.037327,-0.037339 0.065,-0.038993 0.6435164,-0.038993 H 3.672079 V 5.4122986 c 0,-0.3308488 1.902e-4,-0.332633 0.050041,-0.3824376 C 3.762637,4.989332 3.78393,4.982124 3.8339824,4.992168 3.9496258,5.015327 3.9542306,5.030216 3.9609621,5.4040629 l 0.00614,0.3406207 h 0.681259 0.6812602 v -0.327174 c 0,-0.3531693 0.010989,-0.3977039 0.1042765,-0.4211115 0.027815,-0.00709 0.3502329,0.058607 0.7975192,0.1621159 0.9281621,0.2148863 0.9068507,0.2090728 0.9309176,0.2540446 0.010871,0.020324 0.019827,0.1033903 0.019827,0.18459 v 0.147535 h 0.1861447 c 0.1716314,0 0.1898718,0.00354 0.2340058,0.047855 0.057402,0.057426 0.061278,0.1262424 0.010634,0.1888556 -0.0339,0.041829 -0.054933,0.046673 -0.2340046,0.052699 l -0.1967569,0.00709 v 0.152344 0.1523559 l 0.1967569,0.00709 c 0.1790719,0.00591 0.2001045,0.010634 0.2340046,0.0527 0.050655,0.062625 0.046792,0.1314533 -0.010634,0.1888556 -0.044168,0.044192 -0.062329,0.047855 -0.2347939,0.047855 H 7.1805886 l 0.00567,0.1608752 0.00567,0.1608871 0.1892632,0.00591 C 7.558606,6.974786 7.5729483,6.978326 7.61032,7.0263 c 0.050313,0.063925 0.050313,0.1049263 0,0.168851 -0.037374,0.0475 -0.051719,0.051045 -0.2291282,0.056244 L 7.1919286,7.257305 7.1804666,7.376576 C 7.1615648,7.5739701 7.0274056,7.7343018 6.8144643,7.8139772 6.707222,7.8541517 6.5053097,7.8781383 6.4313697,7.8597053 Z M 6.6679408,7.5555134 c 0.1013106,-0.025523 0.2216876,-0.1283102 0.2216876,-0.1893046 0,-0.1000817 -0.1986393,-0.1386374 -0.3659991,-0.071132 -0.1606224,0.06487 -0.2135358,0.2029166 -0.09714,0.2535128 0.078139,0.033912 0.1282571,0.03533 0.2414499,0.00709 z M 4.5028001,6.908645 c -0.00697,-0.037102 3.805e-4,-0.105399 0.017121,-0.1608871 0.016082,-0.052936 0.029327,-0.098546 0.029434,-0.1012633 1.477e-4,-0.00236 -0.1314167,-0.00473 -0.2922955,-0.00473 H 3.9645517 v 0.075505 c 0,0.041592 -0.013151,0.112843 -0.029245,0.1584529 -0.016093,0.04561 -0.029245,0.086139 -0.029245,0.090156 0,0.00354 0.1369939,0.00709 0.3044293,0.00709 H 4.5149174 Z M 6.8896284,6.8073816 V 6.6416145 H 6.2558627 5.6220947 v 0.088384 c 0,0.048564 -0.013151,0.1198855 -0.029245,0.1583821 -0.016093,0.03852 -0.029245,0.073377 -0.029245,0.077395 0,0.00354 0.2983571,0.00709 0.6630163,0.00709 H 6.8896402 Z M 3.5149766,6.9151438 c 0.077194,-0.039347 0.1570693,-0.1237493 0.1570693,-0.1658971 0,-0.1040992 -0.2548422,-0.1346672 -0.4065458,-0.0488 -0.099964,0.056599 -0.1505634,0.1374914 -0.1207811,0.193133 0.026468,0.049509 0.04893,0.056717 0.1819715,0.058489 0.076391,9.453e-4 0.137281,-0.010635 0.1882861,-0.036866 z m 1.6329621,0.017724 c 0.070743,-0.026704 0.181649,-0.133592 0.181649,-0.1751135 0,-0.1333912 -0.2996994,-0.150678 -0.448065,-0.025877 -0.1075495,0.090511 -0.1187723,0.1571059 -0.033427,0.1983438 0.05628,0.027177 0.2306004,0.028713 0.2998494,0.00236 z M 5.3295877,6.1930427 V 6.0370356 H 4.6470703 3.9645528 v 0.1560071 0.156007 h 0.6825175 0.6825174 z m 1.5600407,0 V 6.0370356 H 6.2558627 5.6220947 v 0.1560071 0.156007 h 0.633768 0.6337657 z m 0,-0.5154506 c 0,-0.047028 -0.010162,-0.069833 -0.034125,-0.076686 C 6.8367398,5.594998 6.566896,5.533082 6.2558651,5.4621622 5.9448317,5.3911479 5.6749927,5.3285584 5.6562241,5.3229812 c -0.031053,-0.00945 -0.034125,0.00945 -0.034125,0.2056816 v 0.2158198 h 0.633768 0.6337657 z M 4.5067289,4.2948213 C 4.2466452,4.2216801 4.1173731,3.9993615 4.2083092,3.7817221 c 0.016093,-0.03852 0.029245,-0.073259 0.029245,-0.077395 0,-0.00354 -0.3992731,-0.00709 -0.8872727,-0.00709 -0.8612716,0 -0.8884142,-0.00115 -0.9262715,-0.038993 C 2.374217,3.6084981 2.372421,3.5001693 2.4207,3.4565091 2.441886,3.4373671 2.489375,3.4242511 2.5377023,3.4242511 h 0.081341 v -0.098191 c 0,-0.053999 0.012714,-0.1285584 0.028252,-0.1657552 l 0.028254,-0.067587 H 2.5692877 c -0.1291941,0 -0.1842579,-0.043247 -0.1842579,-0.1448409 0,-0.048918 0.013718,-0.077631 0.051376,-0.1072895 0.048788,-0.038402 0.075363,-0.040411 0.5265152,-0.040411 H 3.438053 V 2.6441694 2.4881624 H 2.962921 c -0.4511526,0 -0.4777269,-0.00236 -0.5265152,-0.040411 -0.064386,-0.050691 -0.070447,-0.1550263 -0.012371,-0.2130903 0.036925,-0.036866 0.065,-0.038993 0.526514,-0.038993 H 3.4380613 V 1.8845879 c 0,-0.1896827 0.00863,-0.3299626 0.022025,-0.3594436 0.04906,-0.107644 0.06116,-0.1064624 0.9325836,0.095473 0.4436387,0.1027995 0.8226709,0.1955316 0.8422926,0.2060243 0.042809,0.022923 0.053822,0.065343 0.060403,0.2324803 l 0.00496,0.1267506 0.4120899,0.00473 0.4120899,0.00473 0.00792,-0.12486 c 0.00957,-0.150288 0.07092,-0.2558524 0.2033337,-0.349908 0.1256954,-0.089211 0.2498204,-0.1287593 0.4077015,-0.1297046 0.218964,-0.00118 0.3460973,0.053409 0.438891,0.1888202 0.058797,0.085784 0.073519,0.2430793 0.032045,0.3423339 l -0.030308,0.07255 h 0.1851466 c 0.1705726,0 0.1889123,0.00354 0.2330109,0.047855 0.057414,0.057426 0.061278,0.1262542 0.010634,0.1888555 l -0.037256,0.046083 -0.5770073,0.00591 -0.5770122,0.00591 v 0.1543409 0.154341 l 0.5770122,0.00591 0.5770073,0.00591 0.037256,0.046083 C 7.663547,2.9183874 7.659683,2.9872039 7.602246,3.044618 L 7.554379,3.092473 H 6.9879779 6.4215778 v 0.1657435 0.1657552 h 0.5738501 0.5738478 l 0.040411,0.0514 c 0.050986,0.06487 0.050986,0.105399 0,0.1702454 l -0.040411,0.0514 H 6.9964902 6.4237047 l -0.02544,0.052936 c -0.01399,0.029067 -0.049568,0.066406 -0.079061,0.08283 -0.048233,0.02694 -0.059021,0.02694 -0.1072541,0 -0.029493,-0.016424 -0.065154,-0.053999 -0.07925,-0.083303 l -0.025629,-0.05329 -0.4033814,0.00473 -0.4033839,0.00473 -0.010398,0.1169787 C 5.2777957,3.9594943 5.2436592,4.0296578 5.1409897,4.1287234 4.9866511,4.277629 4.7075317,4.3502267 4.5066545,4.2936988 Z M 4.8052207,3.9984753 C 4.9785571,3.9373865 5.0569257,3.7935618 4.9485491,3.7355569 4.7787552,3.6446916 4.4016443,3.8147243 4.4832316,3.945445 4.5351748,4.0286299 4.6610333,4.0493079 4.8052207,3.998499 Z M 5.0134936,3.2533448 5.0191653,3.0924577 H 4.3748609 3.7305565 v 0.098428 c 0,0.054117 -0.012809,0.1232529 -0.028477,0.1535374 -0.015656,0.030249 -0.022852,0.060734 -0.015999,0.067588 0.00685,0.00709 0.3070654,0.010634 0.6671164,0.00709 l 0.6546363,-0.00473 z m 1.1115349,-3.781e-4 0.00567,-0.161277 -0.4151786,0.00473 -0.4151821,0.00473 -0.00579,0.1345728 c -0.00319,0.073968 -0.00114,0.1465896 0.00437,0.1612769 0.00827,0.021623 0.086765,0.025759 0.4153416,0.021387 l 0.405096,-0.00473 z M 3.2727256,3.3763024 c 0.093075,-0.038875 0.1653145,-0.1161516 0.1653145,-0.1766851 0,-0.039347 -0.015065,-0.056953 -0.067623,-0.078931 -0.086682,-0.036275 -0.159781,-0.035684 -0.2660308,0.00118 -0.1669285,0.058844 -0.2426811,0.1863979 -0.1495164,0.251646 0.055098,0.038638 0.227865,0.03982 0.3178582,0.00236 z M 5.0175807,2.6439686 V 2.4879615 H 4.3740633 3.7305482 v 0.1560071 0.1559952 h 0.6435151 0.6435174 z m 1.1115279,0 V 2.4879615 H 5.7098488 5.2905865 V 2.6439686 2.7999638 H 5.7098488 6.1291086 Z M 5.0175807,2.1291442 c 0,-0.063098 -0.00449,-0.067351 -0.092626,-0.087675 C 4.0530726,1.8403959 3.8111784,1.784577 3.774427,1.7759631 3.7309559,1.7653287 3.7305541,1.7676919 3.7305541,1.9805577 V 2.195444 h 0.6435151 0.6435174 z m 1.7050541,0.045137 C 6.832193,2.1467502 6.9481295,2.0518317 6.9481295,1.989774 c 0,-0.1058717 -0.1933787,-0.146507 -0.3659991,-0.076804 -0.1606223,0.06487 -0.2135357,0.2029166 -0.09714,0.253501 0.077549,0.033676 0.1283079,0.035448 0.2376428,0.00827 z"
       id="path126"
       sodipodi:nodetypes="ccccssscccsscccsscscsssssssssscccsscccscssccsssscssscsscscsscsssssscccsssscscsscccssssscsssscccsssscccsssscssccsssssssccscsssscsccccssssccssssssssssssccccccccccccccccccssssscccscsssssscsscsssscccsssscssssscccssssscssscccccccsscccccccsscccsssscccssccssssccccsssscccccccssccsssssssccccccccccccccccccsssscccssssss" />
  </g>
</svg>
