<?xml version="1.0" encoding="UTF-8" standalone="no"?>
<!-- Created with Inkscape (http://www.inkscape.org/) -->

<svg
   width="11mm"
   height="10mm"
   viewBox="0 0 11 10"
   version="1.1"
   id="svg1"
   xml:space="preserve"
   inkscape:version="1.3 (0e150ed, 2023-07-21)"
   sodipodi:docname="sections-tab-icon.svg"
   xmlns:inkscape="http://www.inkscape.org/namespaces/inkscape"
   xmlns:sodipodi="http://sodipodi.sourceforge.net/DTD/sodipodi-0.dtd"
   xmlns="http://www.w3.org/2000/svg"
   xmlns:svg="http://www.w3.org/2000/svg"><sodipodi:namedview
     id="namedview1"
     pagecolor="#ffffff"
     bordercolor="#000000"
     borderopacity="0.25"
     inkscape:showpageshadow="2"
     inkscape:pageopacity="0.0"
     inkscape:pagecheckerboard="0"
     inkscape:deskcolor="#d1d1d1"
     inkscape:document-units="mm"
     inkscape:zoom="8.6577329"
     inkscape:cx="39.444506"
     inkscape:cy="23.504999"
     inkscape:window-width="1920"
     inkscape:window-height="1057"
     inkscape:window-x="0"
     inkscape:window-y="1080"
     inkscape:window-maximized="1"
     inkscape:current-layer="layer1" /><defs
     id="defs1" /><g
     inkscape:label="Layer 1"
     inkscape:groupmode="layer"
     id="layer1"><path
       style="fill:#ffffff;stroke-width:0.074655"
       d="M 1.5839483,9.3670072 C 1.3437736,9.329876 1.1105189,9.1555139 1.0077939,8.9363267 L 0.95469237,8.8230304 V 7.98355 7.1440702 L 1.0168045,7.0255554 C 1.0993968,6.8679685 1.222866,6.7477306 1.3793695,6.6724837 l 0.128391,-0.061731 h 0.8197282 0.8197272 l 0.1283911,0.061123 c 0.156429,0.074471 0.2792757,0.1941264 0.3622773,0.3528566 l 0.062403,0.1193351 0.00581,0.7969413 C 3.7126275,8.8356779 3.7097238,8.8605354 3.5775226,9.04974 3.4861874,9.1804749 3.3731878,9.2692476 3.2219483,9.3290803 3.1112318,9.3728809 3.0859595,9.3743962 2.396645,9.3784886 2.0055456,9.3808479 1.6398401,9.3756757 1.5839664,9.3670008 Z M 3.0940899,8.8324003 C 3.212004,8.7605064 3.2163541,8.7300846 3.2163541,7.9772299 c 0,-0.952708 0.070406,-0.8824655 -0.884558,-0.8825109 -0.7109798,-3.27e-5 -0.7377075,0.00345 -0.8339073,0.1076313 l -0.049381,0.053492 -0.00563,0.6985638 c -0.00626,0.7766697 -0.00254,0.8044681 0.1180429,0.8779918 0.062339,0.038011 0.098048,0.039862 0.7665976,0.039862 0.6685486,0 0.7042578,-0.00181 0.7665967,-0.039862 z M 4.7443444,9.3670072 C 4.5041698,9.329876 4.2709159,9.1555139 4.1681892,8.9363267 L 4.1150967,8.8230304 V 7.98355 7.1440702 L 4.1772088,7.0255554 C 4.2598011,6.8679685 4.3832703,6.7477306 4.5397738,6.6724837 l 0.128391,-0.061731 H 5.487893 6.3076203 l 0.128391,0.061123 c 0.156429,0.074471 0.2792758,0.1941264 0.3622782,0.3528566 l 0.062403,0.1193351 0.00581,0.7969413 C 6.8730327,8.8356779 6.870129,8.8605354 6.7379269,9.04974 6.6465917,9.1804749 6.5335922,9.2692476 6.3823535,9.3290803 6.2716361,9.3728809 6.2463638,9.3743962 5.5570493,9.3784886 5.1659499,9.3808479 4.8002453,9.3756757 4.7443708,9.3670008 Z M 6.2544861,8.8324003 c 0.117914,-0.071894 0.1222642,-0.1023157 0.1222642,-0.8551704 0,-0.952708 0.070406,-0.8824655 -0.8845571,-0.8825109 -0.7109808,-3.27e-5 -0.7377085,0.00345 -0.8339083,0.1076313 l -0.049381,0.053492 -0.00563,0.6985638 c -0.00626,0.7766697 -0.00254,0.8044681 0.1180439,0.8779918 0.062339,0.038011 0.098047,0.039862 0.7665967,0.039862 0.6685494,0 0.7042586,-0.00181 0.7665976,-0.039862 z M 7.9047406,9.3670072 C 7.6645659,9.329876 7.4313121,9.1555139 7.3285862,8.9363267 L 7.2754847,8.8230304 V 7.98355 7.1440702 L 7.3375968,7.0255554 C 7.4201891,6.8679685 7.5436583,6.7477306 7.7001627,6.6724837 l 0.128391,-0.061731 H 8.6482811 9.4680084 L 9.5964,6.6718758 c 0.1564272,0.074471 0.2792749,0.1941264 0.3622764,0.3528566 l 0.062403,0.1193351 0.0058,0.7969413 C 10.03342,8.8356779 10.030516,8.8605354 9.8983129,9.04974 9.8069795,9.1804749 9.6939781,9.2692476 9.5427408,9.3290803 9.4320225,9.3728809 9.4067512,9.3743962 8.7174366,9.3784886 8.3263373,9.3808479 7.9606327,9.3756757 7.9047581,9.3670008 Z M 9.4148824,8.8324003 c 0.117915,-0.071894 0.1222651,-0.1023157 0.1222651,-0.8551704 0,-0.952708 0.070406,-0.8824655 -0.8845589,-0.8825109 -0.7109791,-3.27e-5 -0.7377068,0.00345 -0.8339066,0.1076313 l -0.049381,0.053492 -0.00563,0.6985638 c -0.00626,0.7766697 -0.00254,0.8044681 0.1180438,0.8779918 0.062339,0.038011 0.098048,0.039862 0.7665969,0.039862 0.6685485,0 0.7042587,-0.00181 0.7665967,-0.039862 z M 5.4187557,6.2043654 C 5.3801273,6.1931226 5.2094602,6.036846 4.9284503,5.7553861 4.5250865,5.3513753 4.4966692,5.3181777 4.4859799,5.2384855 4.4654452,5.0853637 4.5731818,4.9614208 4.7268269,4.9614208 c 0.1022141,0 0.1366848,0.022268 0.3314454,0.2141078 l 0.172835,0.1702416 3e-5,-0.5921623 c 2.72e-5,-0.5247324 0.00399,-0.5998749 0.034563,-0.6598927 0.048864,-0.095829 0.1242678,-0.1450583 0.2221853,-0.1450583 0.097917,0 0.1733195,0.049227 0.2221844,0.1450583 0.030607,0.060016 0.034536,0.1351603 0.034563,0.6598927 l 3.08e-5,0.5921623 0.1728341,-0.1702416 c 0.1947607,-0.19184 0.2292322,-0.2141078 0.3314463,-0.2141078 0.1536424,0 0.2613853,0.1239429 0.2408461,0.2770647 C 6.4791014,5.3181922 6.450763,5.35128 6.0473211,5.7550731 5.8102443,5.9923576 5.5984961,6.1915528 5.5767682,6.1977304 c -0.079788,0.022685 -0.099954,0.023529 -0.1580197,0.00662 z M 2.6022283,3.5215362 C 2.3321155,3.4351146 2.1468001,3.2229426 2.0909282,2.9361335 2.0752482,2.8556191 2.0700397,2.5898129 2.074486,2.0973116 2.080836,1.3977942 2.082376,1.3729692 2.126635,1.2628352 2.223817,1.0210699 2.4688877,0.83277723 2.7367955,0.79403906 c 0.1815034,-0.0262423 5.3215524,-0.0261152 5.5031447,1.4882e-4 0.074162,0.0107256 0.183743,0.0434376 0.243504,0.0727016 0.1425468,0.0697979 0.3056806,0.24634952 0.3651803,0.39521262 0.044282,0.1107882 0.045879,0.1361657 0.05253,0.8352259 0.00472,0.4957172 -3.739e-4,0.7577867 -0.016197,0.8388219 C 8.8425264,3.152966 8.7277075,3.3267038 8.5539187,3.4370438 8.3505975,3.5661335 8.5289559,3.5591192 5.4793697,3.5579487 2.877565,3.5569505 2.7060876,3.5547727 2.6022319,3.5215525 Z M 8.2789358,3.0178066 C 8.3900661,2.9424826 8.3915289,2.9314667 8.3912122,2.1723643 8.3909136,1.4103019 8.390988,1.4108372 8.2747182,1.3324961 l -0.066831,-0.045035 h -2.7200001 -2.72 l -0.066831,0.045035 C 2.584807,1.4108417 2.5848805,1.4102973 2.584562,2.1723643 c -2.232e-4,0.5706418 0.0049,0.7073057 0.028329,0.752599 0.03009,0.058183 0.094841,0.109203 0.1598527,0.125951 0.021279,0.00544 1.256422,0.00871 2.7447713,0.00717 2.6227912,-0.00272 2.7077927,-0.0039 2.7614178,-0.040289 z"
       id="path1" /></g></svg>
